<svg xmlns="http://www.w3.org/2000/svg" viewBox="0 0 1272.21 700"><title>business-couching-school-logo</title><path d="M467.88,321.69c0,12.88-.19,25.23-.61,37.24-.61,11.74-1.79,23.06-3.38,34-18.7,127.37-101.08,203.14-181.82,247.59C194.37,688.79,108.72,700,108.72,700V356.76c-.42-12,0-22.19,0-35.07,0,0-2-62.62,35.49-113.27v0c34.76-38.49,86.4-62.85,144.05-62.85s109.16,24.32,144,62.7C469.89,258.92,467.88,321.69,467.88,321.69Z" style="fill:#5ba060"/><path d="M371.51,399.55a103.59,103.59,0,0,1-83.21-42,103.47,103.47,0,1,1,0-123,103.47,103.47,0,1,1,83.21,165Zm-77-103.47,8.32,23.9a72.77,72.77,0,1,0,0-47.87Zm-89.37-72.73a72.77,72.77,0,1,0,68.7,96.71l8.32-23.9-8.32-23.9A72.77,72.77,0,0,0,205.12,223.35Z" style="fill:#508357"/><path d="M371.51,208a88.2,88.2,0,0,0-83.22,59.17,88.08,88.08,0,1,0,0,57.91A88.12,88.12,0,1,0,371.51,208Z" style="fill:#fff"/><path d="M242.09,294.8a38.14,38.14,0,1,1-38.15-38.15A38.14,38.14,0,0,1,242.09,294.8Z" style="fill:#383d3d"/><path d="M410.8,294.79a38.11,38.11,0,1,1-38.11-38.15A38.11,38.11,0,0,1,410.8,294.79Z" style="fill:#383d3d"/><path d="M302,317.43H270.17c-7.79,0-11.48,5.78-8.13,12.85l19.76,42c3.3,7.07,8.74,7.07,12.08,0l19.76-42c3.34-7.07-.34-12.85-8.13-12.85Z" style="fill:#383d3d"/><path d="M296.05,454.61c1-18.5,27.74-18.5,28.72,0,.27,4.94,8,5,7.72,0-.69-12.5-9.58-21.39-22.08-22.08s-21.43,10.6-22.08,22.08C288.07,459.59,295.78,459.55,296.05,454.61Z" style="fill:#508357"/><path d="M366.65,454.61c1-18.5,27.74-18.5,28.73,0,.26,4.94,8,5,7.71,0-.68-12.5-9.57-21.39-22.08-22.08s-21.43,10.6-22.07,22.08C358.67,459.59,366.38,459.55,366.65,454.61Z" style="fill:#508357"/><path d="M332.15,496.79c1-18.51,27.74-18.51,28.73,0,.26,4.94,8,5,7.71,0-.68-12.5-9.57-21.4-22.08-22.08s-21.43,10.6-22.07,22.08C324.17,501.77,331.88,501.73,332.15,496.79Z" style="fill:#508357"/><path d="M106.82,699.09S32.87,390.58,152.15,409.2,106.82,699.09,106.82,699.09Z" style="fill:#436449"/><path d="M106.81,700S136,384.08,242.92,440.09,106.81,700,106.81,700Z" style="fill:#508357"/><path d="M289,36.48l40.58,115.89A277.28,277.28,0,0,1,299,174.45a288.9,288.9,0,0,1-61.86,29.33,290.78,290.78,0,0,1-97,14.94L103,112.93l56.39-23.1Z" style="fill:#383d3d"/><path d="M289,36.48l40.58,115.9A279.29,279.29,0,0,1,299,174.45l-140.9-27.51-46.24-8.85-6.61-1.22,4.75-4.06,49.43-43Z" style="fill:#4d5154"/><path d="M0,122.43,172.4,31.69,376.9,0,197.7,148.69Z" style="fill:#434749"/><path d="M0,122.43,172.4,31.69,376.9,0,188,128.81Z" style="fill:#383d3d"/><path d="M186,50.2c1.49,4.21-5.58,10.48-15.73,14s-19.6,3-21.05-1.17S154.84,52.59,165,49,184.55,46,186,50.2Z" style="fill:#272d32"/><path d="M61,152.83a1.87,1.87,0,0,1-.22.07,4.42,4.42,0,0,1-5.51-3l-1-3.3c-3.84-12.81-7.45-24.85,7-34.43L169.4,50a4.42,4.42,0,0,1,4.41,7.67l-107.92,62c-8.28,5.48-7.25,10.53-3.15,24.32l1,3.39A4.41,4.41,0,0,1,61,152.83Z" style="fill:#5ba060"/><path d="M50.61,180.23c7.22,20.63,30.21,31.39,30.21,31.39a7.73,7.73,0,0,0,.34-.73l-22-62.77C50.23,151.69,43.66,160.36,50.61,180.23Z" style="fill:#5ba060"/><path d="M60.22,147.74a11,11,0,0,0-1,.42l22,62.73c1.75-3.87,10.22-24.09,3.72-42.67C77.66,147.59,69.68,144.4,60.22,147.74Z" style="fill:#508357"/><path d="M683.09,147.43a24.63,24.63,0,0,1,4.79,15.39c0,8.63-3.35,15.24-10,19.88s-16.45,7-29.29,7H597.71V91.31h48q18,0,27.58,6.88a21.81,21.81,0,0,1,9.62,18.69,23.62,23.62,0,0,1-3.46,12.77,24,24,0,0,1-9.62,8.85A25.69,25.69,0,0,1,683.09,147.43Zm-62.77-39v23.18h22.6q8.45,0,12.77-3a9.87,9.87,0,0,0,4.37-8.7c0-3.84-1.44-6.72-4.37-8.63s-7.14-2.88-12.77-2.88Zm40.08,61.1q4.56-3,4.56-9.12c0-8.13-6-12.24-18.12-12.24H620.28v24.28h26.56Q655.84,172.47,660.4,169.55Z" style="fill:#383d3d"/><path d="M779.72,114.07v75.54H758.94v-9a29.57,29.57,0,0,1-10.38,7.53,32.48,32.48,0,0,1-13.07,2.58q-14.88,0-23.59-8.55t-8.71-25.42V114.07h21.93v39.44q0,18.24,15.31,18.24,7.86,0,12.66-5.13t4.78-15.24V114h21.85Z" style="fill:#383d3d"/><path d="M807.11,188.43a49.07,49.07,0,0,1-14.32-5.81l7.29-15.73a46.24,46.24,0,0,0,12.24,5.28,50.84,50.84,0,0,0,14.06,2.05c9.27,0,13.9-2.28,13.9-6.88,0-2.16-1.25-3.68-3.8-4.63a55,55,0,0,0-11.66-2.4,113.61,113.61,0,0,1-15.31-3.23,23.55,23.55,0,0,1-10.45-6.46c-3-3.07-4.41-7.48-4.41-13.18a20.5,20.5,0,0,1,4.14-12.69,26.75,26.75,0,0,1,12.08-8.63A51.83,51.83,0,0,1,829.61,113a72.85,72.85,0,0,1,15.92,1.75,45,45,0,0,1,13.11,4.83l-7.3,15.58a43.38,43.38,0,0,0-21.77-5.63c-4.68,0-8.21.65-10.53,2s-3.49,3-3.49,5c0,2.36,1.25,4,3.8,4.9a64,64,0,0,0,12.08,2.66,125.51,125.51,0,0,1,15.16,3.31,23.18,23.18,0,0,1,10.26,6.38c2.89,3.08,4.37,7.41,4.37,12.92a19.87,19.87,0,0,1-4.22,12.5q-4.21,5.47-12.27,8.52a54.89,54.89,0,0,1-19.15,3A76.5,76.5,0,0,1,807.11,188.43Z" style="fill:#383d3d"/><path d="M875.78,100a11.46,11.46,0,0,1-3.8-8.7,11.28,11.28,0,0,1,3.8-8.7,13.77,13.77,0,0,1,9.84-3.5,14.34,14.34,0,0,1,9.84,3.38,10.89,10.89,0,0,1,3.8,8.44,11.76,11.76,0,0,1-3.8,9,15.41,15.41,0,0,1-19.68,0Zm-1.14,14.06h21.92v75.54H874.64Z" style="fill:#383d3d"/><path d="M985.52,121.37q8.61,8.43,8.63,25v43.24H972.22v-39.9c0-6-1.29-10.45-3.91-13.41s-6.42-4.41-11.36-4.41c-5.51,0-9.92,1.71-13.19,5.13s-4.9,8.51-4.9,15.24v37.35H916.93V114.07h20.94v8.86a28.86,28.86,0,0,1,10.83-7.38A37.45,37.45,0,0,1,962.87,113Q976.9,112.91,985.52,121.37Z" style="fill:#383d3d"/><path d="M1088.37,158h-57.14a17.71,17.71,0,0,0,7.29,11.1c3.84,2.7,8.63,4.07,14.33,4.07a28.8,28.8,0,0,0,10.45-1.75,25.23,25.23,0,0,0,8.51-5.55l11.66,12.65c-7.1,8.13-17.51,12.24-31.19,12.24a49.42,49.42,0,0,1-22.61-5A36.1,36.1,0,0,1,1014.51,172a40.56,40.56,0,0,1,0-40.09A36.91,36.91,0,0,1,1029,118a42.64,42.64,0,0,1,20.55-5,42.11,42.11,0,0,1,20.1,4.78,35,35,0,0,1,14.1,13.68,40.86,40.86,0,0,1,5.13,20.71C1088.79,152.41,1088.68,154.39,1088.37,158Zm-51.25-24.32a18,18,0,0,0-6.2,11.52h37.2a18.07,18.07,0,0,0-6.19-11.44,18.51,18.51,0,0,0-12.35-4.29A18.89,18.89,0,0,0,1037.12,133.71Z" style="fill:#383d3d"/><path d="M1110.41,188.43a49.07,49.07,0,0,1-14.32-5.81l7.29-15.73a46.38,46.38,0,0,0,12.24,5.28,50.89,50.89,0,0,0,14.06,2.05c9.27,0,13.91-2.28,13.91-6.88,0-2.16-1.26-3.68-3.8-4.63a55.3,55.3,0,0,0-11.67-2.4,113.61,113.61,0,0,1-15.31-3.23,23.55,23.55,0,0,1-10.45-6.46c-3-3.07-4.41-7.48-4.41-13.18a20.5,20.5,0,0,1,4.14-12.69,26.8,26.8,0,0,1,12.08-8.63,51.86,51.86,0,0,1,18.74-3.08,72.85,72.85,0,0,1,15.92,1.75,45,45,0,0,1,13.11,4.83l-7.3,15.58a43.35,43.35,0,0,0-21.77-5.63c-4.67,0-8.21.65-10.53,2s-3.49,3-3.49,5c0,2.36,1.25,4,3.8,4.9a64.2,64.2,0,0,0,12.08,2.66,125.07,125.07,0,0,1,15.16,3.31,23.12,23.12,0,0,1,10.26,6.38c2.89,3.08,4.37,7.41,4.37,12.92a19.87,19.87,0,0,1-4.22,12.5q-4.21,5.47-12.27,8.52a54.85,54.85,0,0,1-19.15,3A76.76,76.76,0,0,1,1110.41,188.43Z" style="fill:#383d3d"/><path d="M1185,188.43a49.26,49.26,0,0,1-14.33-5.81l7.3-15.73a46.24,46.24,0,0,0,12.24,5.28,50.84,50.84,0,0,0,14.06,2.05c9.27,0,13.9-2.28,13.9-6.88,0-2.16-1.25-3.68-3.8-4.63a55,55,0,0,0-11.66-2.4,113.8,113.8,0,0,1-15.32-3.23,23.66,23.66,0,0,1-10.45-6.46c-3-3.07-4.4-7.48-4.4-13.18a20.44,20.44,0,0,1,4.14-12.69,26.75,26.75,0,0,1,12.08-8.63,51.77,51.77,0,0,1,18.73-3.08,73,73,0,0,1,15.93,1.75,45,45,0,0,1,13.11,4.83l-7.3,15.58a43.38,43.38,0,0,0-21.77-5.63c-4.68,0-8.21.65-10.53,2s-3.49,3-3.49,5c0,2.36,1.25,4,3.8,4.9a64,64,0,0,0,12.08,2.66,125.51,125.51,0,0,1,15.16,3.31,23.23,23.23,0,0,1,10.26,6.38c2.89,3.08,4.37,7.41,4.37,12.92a19.93,19.93,0,0,1-4.22,12.5q-4.22,5.47-12.27,8.52a54.89,54.89,0,0,1-19.15,3A76.5,76.5,0,0,1,1185,188.43Z" style="fill:#383d3d"/><path d="M617.58,332.22a48.79,48.79,0,0,1-19.12-18.13,52.78,52.78,0,0,1,0-52.36,48.84,48.84,0,0,1,19.12-18.12,56.58,56.58,0,0,1,27.32-6.54,57.24,57.24,0,0,1,23.1,4.48,46.35,46.35,0,0,1,17.33,12.92L670.74,268q-10-11.5-24.7-11.51a33,33,0,0,0-16.3,4,28.11,28.11,0,0,0-11.17,11.17,35.29,35.29,0,0,0,0,32.6,28.11,28.11,0,0,0,11.17,11.17,33,33,0,0,0,16.3,4c9.84,0,18.05-3.87,24.7-11.66l14.59,13.49a45.74,45.74,0,0,1-17.41,13.07,57.69,57.69,0,0,1-23.17,4.48A56.29,56.29,0,0,1,617.58,332.22Z" style="fill:#383d3d"/><path d="M711,333.2a37.23,37.23,0,0,1-14.82-13.83,37.88,37.88,0,0,1-5.31-20.06,38.52,38.52,0,0,1,5.31-20.1A36.7,36.7,0,0,1,711,265.38a45.47,45.47,0,0,1,21.44-5,45,45,0,0,1,21.35,5,36.89,36.89,0,0,1,14.74,13.83,40.56,40.56,0,0,1,0,40.16,37.15,37.15,0,0,1-14.74,13.83,48.45,48.45,0,0,1-42.79,0Zm35.23-18.65c3.61-3.8,5.39-8.85,5.39-15.24s-1.78-11.44-5.39-15.24a18.23,18.23,0,0,0-13.83-5.7,18.45,18.45,0,0,0-13.91,5.7c-3.65,3.8-5.47,8.86-5.47,15.24s1.82,11.44,5.47,15.24a19.73,19.73,0,0,0,27.74,0Z" style="fill:#383d3d"/><path d="M844.58,268.76Q854,277.15,854,294v43.13H833.48v-9.42q-6.15,10.54-23,10.52a35.45,35.45,0,0,1-15.09-3,22.65,22.65,0,0,1-9.77-8.13,21.27,21.27,0,0,1-3.38-11.78q0-10.55,7.94-16.57t24.51-6h17.41c0-4.79-1.45-8.44-4.37-11s-7.26-3.88-13.07-3.88a38.46,38.46,0,0,0-11.86,1.9,31.62,31.62,0,0,0-9.92,5.13L785,269.52a47.26,47.26,0,0,1,14.82-6.72,65.74,65.74,0,0,1,17.74-2.4C829.34,260.4,838.31,263.17,844.58,268.76Zm-18.66,52.1a14.4,14.4,0,0,0,6.19-7.64v-7.71h-15q-13.5,0-13.49,8.85a8,8,0,0,0,3.31,6.69c2.21,1.63,5.21,2.47,9.05,2.47A20.2,20.2,0,0,0,825.92,320.86Z" style="fill:#383d3d"/><path d="M889.46,333.2a36.85,36.85,0,0,1-15-13.83,38.1,38.1,0,0,1,15-54,46.61,46.61,0,0,1,21.69-5,42.29,42.29,0,0,1,20.86,5,29.58,29.58,0,0,1,13,14.25l-17,9.12c-3.91-6.92-9.61-10.41-17-10.41A19.15,19.15,0,0,0,896.86,284c-3.76,3.76-5.62,8.85-5.62,15.31s1.86,11.55,5.62,15.32A19.22,19.22,0,0,0,911,320.21q11.22,0,17-10.37l17,9.27a30,30,0,0,1-13,14.06q-8.88,5.07-20.86,5.05A46.63,46.63,0,0,1,889.46,333.2Z" style="fill:#383d3d"/><path d="M1025.68,268.84q8.61,8.43,8.63,25v43.24h-21.93v-39.9c0-6-1.29-10.45-3.91-13.41s-6.42-4.41-11.36-4.41c-5.51,0-9.92,1.71-13.19,5.13S979,293,979,299.73v37.35H957.09V232.85H979v36.52a29.57,29.57,0,0,1,10.52-6.69,37.81,37.81,0,0,1,13.49-2.32Q1017.06,260.42,1025.68,268.84Z" style="fill:#383d3d"/><path d="M1055.24,247.48a11.46,11.46,0,0,1-3.8-8.7,11.28,11.28,0,0,1,3.8-8.7,13.79,13.79,0,0,1,9.84-3.5,14.32,14.32,0,0,1,9.84,3.38,10.89,10.89,0,0,1,3.8,8.44,11.76,11.76,0,0,1-3.8,9,13.64,13.64,0,0,1-9.84,3.57A14.05,14.05,0,0,1,1055.24,247.48Zm-1.14,14H1076V337H1054.1Z" style="fill:#383d3d"/><path d="M1165,268.84q8.61,8.43,8.62,25v43.24h-21.88v-39.9c0-6-1.3-10.45-3.92-13.41s-6.42-4.41-11.36-4.41c-5.51,0-9.92,1.71-13.18,5.13s-4.91,8.51-4.91,15.24v37.35h-21.92V261.5h20.94v8.86A28.82,28.82,0,0,1,1128.2,263a37.45,37.45,0,0,1,14.17-2.58C1151.68,260.4,1159.24,263.21,1165,268.84Z" style="fill:#383d3d"/><path d="M1272.21,261.5v62.93q0,20.81-10.82,30.89t-31.62,10.11a78.89,78.89,0,0,1-20.78-2.66,46.13,46.13,0,0,1-16.31-7.72l8.71-15.73a35.2,35.2,0,0,0,12.08,6.23,47.5,47.5,0,0,0,14.59,2.32q11.4,0,16.8-5.13c3.61-3.42,5.39-8.59,5.39-15.5V324c-5.7,6.27-13.68,9.42-23.86,9.42a40.25,40.25,0,0,1-19-4.56A34.79,34.79,0,0,1,1193.67,316a38.7,38.7,0,0,1,0-38.23A35,35,0,0,1,1207.35,265a40.05,40.05,0,0,1,19-4.56c10.94,0,19.3,3.61,25,10.83v-9.69h20.82Zm-27.16,48.83a19,19,0,0,0,0-26.83q-5.54-5.13-14.25-5.13c-5.82,0-10.57,1.71-14.33,5.13a18.82,18.82,0,0,0,0,26.83c3.76,3.42,8.51,5.13,14.33,5.13S1241.32,313.75,1245.05,310.33Z" style="fill:#383d3d"/><path d="M607.47,483Q596.6,479.9,590,474.82l7.72-17.13a52.92,52.92,0,0,0,15,7.45,56.73,56.73,0,0,0,17.4,2.81c6.46,0,11.25-.95,14.33-2.89s4.63-4.48,4.63-7.64a7.22,7.22,0,0,0-2.74-5.81,21.56,21.56,0,0,0-7-3.73c-2.85-.95-6.73-2-11.59-3.07a171.58,171.58,0,0,1-18.39-5.32,30.06,30.06,0,0,1-12.28-8.55q-5.13-5.88-5.13-15.73a27.45,27.45,0,0,1,4.64-15.51c3.08-4.63,7.75-8.32,14-11s13.83-4.06,22.84-4.06a76.46,76.46,0,0,1,18.39,2.24,53.58,53.58,0,0,1,15.73,6.46l-7,17.29q-13.62-7.69-27.24-7.72c-6.39,0-11.06,1-14.1,3.08a9.43,9.43,0,0,0-4.56,8.13c0,3.35,1.75,5.89,5.28,7.53s8.85,3.26,16.07,4.82a170.22,170.22,0,0,1,18.4,5.32,30.52,30.52,0,0,1,12.27,8.44q5.13,5.76,5.13,15.58A26.79,26.79,0,0,1,667,471.18c-3.16,4.63-7.83,8.32-14.1,11S639,486.26,630,486.26A81.22,81.22,0,0,1,607.47,483Z" style="fill:#383d3d"/><path d="M700.57,480.68a37,37,0,0,1-15-13.83,38.11,38.11,0,0,1,15-54,46.62,46.62,0,0,1,21.7-5,42.32,42.32,0,0,1,20.86,5,29.64,29.64,0,0,1,13,14.25l-17,9.12c-3.92-6.92-9.62-10.41-17-10.41A19.12,19.12,0,0,0,708,431.43q-5.64,5.64-5.63,15.31T708,462.06a19.18,19.18,0,0,0,14.17,5.62q11.24,0,17-10.37l17,9.27a30.05,30.05,0,0,1-13,14.06c-6,3.38-12.89,5.05-20.86,5.05A47.26,47.26,0,0,1,700.57,480.68Z" style="fill:#383d3d"/><path d="M836.79,416.27q8.61,8.43,8.63,25v43.24H823.5V444.62c0-6-1.3-10.45-3.92-13.42s-6.42-4.4-11.36-4.4c-5.51,0-9.92,1.71-13.18,5.12s-4.91,8.52-4.91,15.24v37.35H768.21V380.32h21.92v36.52a29.61,29.61,0,0,1,10.53-6.69,37.73,37.73,0,0,1,13.49-2.32Q828.18,407.83,836.79,416.27Z" style="fill:#383d3d"/><path d="M880.6,480.68a37.24,37.24,0,0,1-14.82-13.83,37.93,37.93,0,0,1-5.32-20.07,38.53,38.53,0,0,1,5.32-20.1,36.7,36.7,0,0,1,14.82-13.83,48.45,48.45,0,0,1,42.79,0,37.22,37.22,0,0,1,14.74,13.83,40.57,40.57,0,0,1,0,40.17,37.29,37.29,0,0,1-14.74,13.83,45.14,45.14,0,0,1-21.36,5A45.66,45.66,0,0,1,880.6,480.68ZM915.86,462c3.61-3.8,5.4-8.85,5.4-15.24s-1.79-11.43-5.4-15.23a18.21,18.21,0,0,0-13.83-5.7,18.46,18.46,0,0,0-13.91,5.7c-3.64,3.8-5.47,8.85-5.47,15.23s1.83,11.44,5.47,15.24a18.46,18.46,0,0,0,13.91,5.7A18.21,18.21,0,0,0,915.86,462Z" style="fill:#383d3d"/><path d="M972.6,480.68a37.24,37.24,0,0,1-14.82-13.83,37.93,37.93,0,0,1-5.32-20.07,38.44,38.44,0,0,1,5.32-20.1,36.64,36.64,0,0,1,14.82-13.83,48.43,48.43,0,0,1,42.78,0,37.24,37.24,0,0,1,14.75,13.83,40.57,40.57,0,0,1,0,40.17,37.31,37.31,0,0,1-14.75,13.83,48.51,48.51,0,0,1-42.78,0Zm35.26-18.7c3.61-3.8,5.4-8.85,5.4-15.24s-1.79-11.43-5.4-15.23a18.23,18.23,0,0,0-13.83-5.7,18.46,18.46,0,0,0-13.91,5.7c-3.65,3.8-5.47,8.85-5.47,15.23s1.82,11.44,5.47,15.24a19.73,19.73,0,0,0,27.74,0Z" style="fill:#383d3d"/><path d="M1050,380.32H1072V484.51H1050Z" style="fill:#383d3d"/></svg>