<svg xmlns="http://www.w3.org/2000/svg" viewBox="0 0 362 136"><path d="M101.87,76.53V53.38H67V76.53H45.87L95,8.5l4.6-6.38H59.9L58.7,3.74.79,82.22,0,83.29V107.9H66.17v26h35.7v-26h20V76.53h-20Zm-38-66.37h20l-49.1,68-4.6,6.38H75V61.41H93.9V84.57h20V99.86h-20v26H74.14v-26H8V85.94Z" style="fill:#5ba060"/><path d="M158.19,35.71l0,0v0c-4.85,7.46-7,18.43-7,32.25s2.12,24.79,7,32.25v0l0,0m0,0c5,7.52,12.08,11.5,20.86,11.5s15.93-4,20.86-11.5h0v0h0c5-7.47,7.15-18.44,7.15-32.25s-2.17-24.78-7.15-32.25h0v0h0c-4.93-7.55-12-11.5-20.86-11.5s-15.84,4-20.86,11.5m35.1,60.1,0,0v0c-3.5,5.38-8.11,7.9-14.21,7.9s-10.6-2.5-14.23-7.92S159.17,81.27,159.17,68s2.09-22.33,5.65-27.83,8.27-7.92,14.23-7.92,10.71,2.52,14.21,7.9v0l0,0C197,45.68,199.1,54.73,199.1,68S197,90.32,193.29,95.81Z" style="fill:#5ba060"/><path d="M335.09,8.5l4.6-6.38H300l-1.2,1.62m0,0L240.91,82.22l-.79,1.07V107.9h66.17v26H342v-26h20V76.53H342V53.38H307.16V76.53H286l49.1-68M304,10.16h20l-49.1,68-4.6,6.38h44.81V61.41H334V84.57h20V99.86H334v26H314.26v-26H248.1V85.94Z" style="fill:#5ba060"/><path d="M129.46,32h0c-4.75,10.2-7,22.25-7,36s2.29,25.85,7,36.16v0m0,0c4.85,10.14,11.58,18.05,20.24,23.57a56.45,56.45,0,0,0,58.67,0c8.67-5.52,15.34-13.44,20.08-23.59h0c4.87-10.31,7.23-22.41,7.23-36.17s-2.35-25.78-7.22-36h0c-4.72-10.27-11.41-18.27-20.09-23.8a56.45,56.45,0,0,0-58.67,0C141,13.74,134.31,21.73,129.46,32m91.79,68.75h0c-4.16,8.93-9.88,15.61-17.12,20.23A48.53,48.53,0,0,1,154,121c-7.24-4.61-13-11.3-17.29-20.23s-6.3-19.89-6.3-32.76,2.15-23.69,6.29-32.57C141,26.36,146.74,19.62,154,15a48.53,48.53,0,0,1,50.15,0c7.23,4.61,12.95,11.34,17.11,20.39l0,0v0c4.25,8.88,6.45,19.69,6.45,32.55s-2.2,23.73-6.46,32.74" style="fill:#5ba060"/></svg>