<svg xmlns="http://www.w3.org/2000/svg" xmlns:xlink="http://www.w3.org/1999/xlink" style="display:none"><symbol id="arrow-bottom-icon"><path fill="#181716" d="M0 1.39L7 8l7-6.61L12.52 0 7 5.21 1.48 0 0 1.39z"/></symbol><symbol id="arrow-left-icon"><path fill="#181716" d="M6.61 14L0 7l6.61-7L8 1.48 2.79 7 8 12.52 6.61 14z"/></symbol><symbol id="arrow-right-icon"><path fill="#181716" d="M1.39 14L8 7 1.39 0 0 1.48 5.21 7 0 12.52 1.39 14z"/></symbol><symbol id="arrow-top-icon"><path fill="#181716" d="M14 6.61L7 0 0 6.61 1.48 8 7 2.79 12.52 8 14 6.61z"/></symbol><symbol id="arrows-double-icon"><path fill="#181716" d="M4.5 17L0 12.24l1.35-1.42 3.15 3.32 3.15-3.32L9 12.24 4.5 17zM7.65 6.18L4.5 2.86 1.35 6.18 0 4.75 4.5 0 9 4.75 7.65 6.18z"/></symbol><symbol id="burger-icon"><path d="M.04 0h20v2h-20zM0 7.04h20v2H0zM0 14.04h20v2H0z"/></symbol><symbol id="close-icon"><path d="M10 0a10 10 0 1010 10A10 10 0 0010 0zm5.59 14.41l-1.18 1.18L10 11.17l-4.41 4.42-1.18-1.18L8.83 10 4.41 5.59l1.18-1.18L10 8.83l4.41-4.42 1.18 1.18L11.17 10z"/></symbol><symbol id="doc-icon"><path d="M9 7h5.5L9 1.5zM2 0h8l6 6v12a2 2 0 01-2 2H2a2 2 0 01-1.41-.59A2 2 0 010 18V2a2 2 0 012-2zm9 16v-2H2v2zm3-4v-2H2v2z" fill="#181716"/></symbol><symbol id="facebook-icon"><path d="M6.47 10.59h3.06L10 7.06H6.47v-2c0-1.06.24-1.77 1.77-1.77H10V.12C9.65.12 8.82 0 7.53 0 4.82 0 2.94 1.65 2.94 4.71v2.35H0v3.53h2.94V20h3.53z" fill="#181716"/></symbol><symbol id="globe-icon"><path d="M10 0a10 10 0 1010 10A10 10 0 0010 0zm6.93 6H14a15.73 15.73 0 00-1.38-3.56A8 8 0 0116.92 6zM10 2a14.09 14.09 0 011.91 4H8.09A14.09 14.09 0 0110 2zM2.26 12A8.24 8.24 0 012 10a8.24 8.24 0 01.26-2h3.38a16.52 16.52 0 00-.14 2 16.52 16.52 0 00.14 2zm.82 2H6a15.65 15.65 0 001.38 3.56A8 8 0 013.08 14zM6 6H3.08a8 8 0 014.33-3.56A15.73 15.73 0 006 6zm4 12a14.09 14.09 0 01-1.91-4h3.82A14.09 14.09 0 0110 18zm2.34-6H7.66a14.71 14.71 0 01-.16-2 14.58 14.58 0 01.16-2h4.68a14.58 14.58 0 01.16 2 14.71 14.71 0 01-.16 2zm.25 5.56A15.65 15.65 0 0014 14h3a8 8 0 01-4.41 3.56zM14.36 12a16.52 16.52 0 00.14-2 16.52 16.52 0 00-.14-2h3.38a8.24 8.24 0 01.26 2 8.24 8.24 0 01-.26 2z"/></symbol><symbol id="instagram-icon"><path d="M10 0C7.28 0 6.94 0 5.88.06a7.59 7.59 0 00-2.43.46 5 5 0 00-1.77 1.16A5 5 0 00.52 3.45a7.59 7.59 0 00-.46 2.43C0 6.94 0 7.28 0 10s0 3.06.06 4.12a7.59 7.59 0 00.46 2.43 5 5 0 001.16 1.77 5 5 0 001.77 1.16 7.59 7.59 0 002.43.46C6.94 20 7.28 20 10 20s3.06 0 4.12-.06a7.59 7.59 0 002.43-.46 5.19 5.19 0 002.93-2.93 7.59 7.59 0 00.46-2.43c0-1.06.06-1.4.06-4.12s0-3.06-.06-4.12a7.59 7.59 0 00-.46-2.43 5 5 0 00-1.16-1.77A5 5 0 0016.55.52a7.59 7.59 0 00-2.43-.46C13.06 0 12.72 0 10 0zm0 1.8c2.67 0 3 0 4 .06a5.61 5.61 0 011.86.34 3.33 3.33 0 011.9 1.9 5.61 5.61 0 01.38 1.9c.05 1 .06 1.37.06 4s0 3-.06 4a5.89 5.89 0 01-.34 1.86 3.14 3.14 0 01-.75 1.15 3.27 3.27 0 01-1.15.75 5.61 5.61 0 01-1.86.34c-1 .05-1.37.06-4 .06s-3 0-4-.06a5.89 5.89 0 01-1.94-.3 3.14 3.14 0 01-1.1-.75 3.14 3.14 0 01-.8-1.15 5.61 5.61 0 01-.34-1.9c-.05-1-.06-1.37-.06-4s0-3 .06-4a5.61 5.61 0 01.34-1.9 3.33 3.33 0 011.9-1.9A5.61 5.61 0 016 1.86c1-.05 1.33-.06 4-.06zm0 11.53a3.31 3.31 0 112.36-1 3.37 3.37 0 01-2.36 1zm0-8.47a5.18 5.18 0 00-2 .4A5.13 5.13 0 005.26 8a5.05 5.05 0 000 3.94A5.13 5.13 0 008 14.74a5.14 5.14 0 102-9.88zm6.54-.2a1.18 1.18 0 01-.09.46 1.16 1.16 0 01-.26.39 1.27 1.27 0 01-.39.26 1.22 1.22 0 01-.46.09 1.18 1.18 0 01-.46-.09 1.2 1.2 0 01-.65-.65 1.21 1.21 0 01.26-1.31 1.21 1.21 0 01.85-.35 1.2 1.2 0 011.2 1.2z" fill="#181716"/></symbol><symbol id="linkedin-icon"><path d="M3.76 18V5.86H.21V18zM2 4.2a2 2 0 002-2.09A2 2 0 002 0a2 2 0 00-2 2.1 2 2 0 002 2.09zM6 18h3.93v-6.55a2.51 2.51 0 01.13-.95 2.16 2.16 0 012-1.43c1.43 0 2 1.08 2 2.65V18H18v-6.73C18 7.67 16.06 6 13.47 6A3.91 3.91 0 009.9 8V6.27H6V18z" fill="#181716"/></symbol><symbol id="pin-icon"><path d="M10 4a3 3 0 00-3 3 3 3 0 003 3 3 3 0 003-3 3 3 0 00-3-3zm0 4a.94.94 0 01-1-1 .94.94 0 011-1 .94.94 0 011 1 .94.94 0 01-1 1z" fill="#181716"/><path d="M15.6 12.6A18.39 18.39 0 0017 7a6.92 6.92 0 00-7-7 6.74 6.74 0 00-7 7.1 19.4 19.4 0 001.5 5.5C1.6 13.3 0 14.5 0 16c0 2.7 5.2 4 10 4s10-1.3 10-4c0-1.5-1.5-2.7-4.4-3.4zM2 16c0-.2.8-1 3.3-1.5a22 22 0 002.3 3.4C3.9 17.5 2 16.4 2 16zm3-9.1A4.81 4.81 0 0110 2a4.89 4.89 0 015 4.9c-.2 2.2-1.1 6.2-5 10.6A18.87 18.87 0 015 6.9zm7.4 11a20 20 0 002.3-3.4c2.5.5 3.3 1.3 3.3 1.5 0 .4-1.9 1.5-5.6 1.9z" fill="#181716"/></symbol><symbol id="quote-icon"><path fill="#5ba060" d="M0 0h32v32H0z"/><path d="M23.49 18.38A8.08 8.08 0 0025 13.43a4.63 4.63 0 00-.26-1.6A3.87 3.87 0 1021 16.72a3.32 3.32 0 00.72-.07 5.93 5.93 0 01-.55 1.5A9.47 9.47 0 0117.73 22l.54 1a14.89 14.89 0 005.22-4.62zM13.37 18.38a8.14 8.14 0 001.5-4.95 4.63 4.63 0 00-.26-1.6 3.87 3.87 0 10-3.73 4.89 3.38 3.38 0 00.72-.07 6 6 0 01-.56 1.5A9.4 9.4 0 017.6 22l.54 1a15 15 0 005.23-4.62z" fill="#fff"/></symbol><symbol id="search-icon"><path d="M20 18.63l-4.52-4.52a8.73 8.73 0 10-1.37 1.37L18.63 20zM1.93 8.69a6.76 6.76 0 116.76 6.76 6.76 6.76 0 01-6.76-6.76z" fill="#181716"/></symbol><symbol id="telegram-icon"><path d="M18.65.11L.93 6.62C-.28 7.09-.27 7.73.71 8l4.55 1.37L15.78 3c.5-.29 1-.14.58.18l-8.52 7.38L7.52 15a1.18 1.18 0 00.92-.44l2.21-2.05 4.6 3.24c.84.45 1.45.22 1.66-.75l3-13.56c.33-1.15-.45-1.68-1.26-1.33z" fill="#181716"/></symbol></svg>